<?xml version="1.0" encoding="UTF-8"?>
<!DOCTYPE svg PUBLIC "-//W3C//DTD SVG 1.1//EN" "http://www.w3.org/Graphics/SVG/1.1/DTD/svg11.dtd">
<!-- it-genn.ru -->
<svg xmlns="http://www.w3.org/2000/svg" xml:space="preserve" width="60px" height="60px" version="1.1" style="shape-rendering:geometricPrecision; text-rendering:geometricPrecision; image-rendering:optimizeQuality; fill-rule:evenodd; clip-rule:evenodd"
viewBox="0 0 224.995 224.994"
 xmlns:xlink="http://www.w3.org/1999/xlink"
 xmlns:xodm="https://it-genn.ru">
 <defs>
  <style type="text/css">
   <![CDATA[
    .fil0 {fill:none}
    .fil1 {fill:black;fill-rule:nonzero}
   ]]>
  </style>
 </defs>
 <g id="miniApp1">
  <metadata id="it-genn-Layer"/>
  <g id="miniApp2">
   <rect class="fil0" x="0.001" y="0.001" width="224.994" height="224.994"/>
   <path class="fil1" d="M94.762 18.75c53.208,0 53.208,2.534 59.543,7.601 3.802,2.536 10.134,3.802 35.473,5.069 1.267,1.267 2.534,1.267 3.801,2.534 0,1.267 12.668,17.736 12.668,46.873 0,27.869 -8.87,40.54 -8.87,40.54 -1.268,1.267 -2.534,2.534 -5.069,2.534 -20.27,0 -46.871,25.338 -65.874,69.676 -2.535,7.603 -3.801,12.668 -15.201,12.668 -6.337,0 -13.936,-5.068 -17.737,-11.401 -7.602,-11.4 -3.801,-39.273 0,-53.207 -12.668,0 -34.205,0 -44.34,0 -15.203,0 -24.071,-8.87 -25.34,-21.538 0,-3.801 1.269,-8.868 2.535,-11.4 -3.801,-3.802 -7.602,-8.869 -7.602,-13.935 0,-8.869 5.067,-15.201 7.602,-17.735 0,-2.536 -1.266,-6.336 -1.266,-8.871 0,-10.133 6.334,-15.2 11.4,-19.002 0,-2.534 -1.268,-6.336 0,-10.135 2.533,-13.933 24.071,-20.268 58.275,-20.268l0 0 0.002 -0.003zm91.215 25.337c-21.538,-2.534 -31.671,-3.801 -38.007,-8.869 -5.067,-3.801 -3.801,-5.068 -53.207,-5.068 -15.202,0 -44.341,1.267 -46.872,11.4 -1.267,3.801 3.801,7.602 3.801,7.602 1.267,3.802 0,6.337 -3.801,7.603 0,0 -11.401,5.068 -11.401,11.401 0,3.801 2.533,6.335 2.533,6.335 1.269,2.534 1.269,6.336 -1.265,8.87 0,0 -7.603,3.801 -7.603,10.133 0,5.068 6.335,8.869 6.335,8.869 2.533,1.268 2.533,2.534 3.802,3.801 0,1.269 0,3.802 -1.269,5.07 0,0 -3.801,5.067 -2.533,8.868 0,10.134 10.134,10.134 12.668,10.134 13.934,0 51.94,0 51.94,0 2.534,0 3.802,1.266 5.069,2.533 1.267,1.268 1.267,3.802 1.267,5.07 -6.336,16.468 -10.134,43.073 -3.802,51.939 1.268,2.534 1.268,5.069 7.603,5.069 0,0 2.534,-1.268 5.068,-6.336 19.003,-46.871 48.139,-73.476 72.21,-76.011 2.534,-5.067 6.336,-13.935 6.336,-31.671 0,-19.003 -6.336,-32.937 -8.87,-36.738l0 0 -0.002 -0.004z"/>
  </g>
 </g>
</svg>
