<?xml version="1.0" encoding="UTF-8"?>
<!DOCTYPE svg PUBLIC "-//W3C//DTD SVG 1.1//EN" "http://www.w3.org/Graphics/SVG/1.1/DTD/svg11.dtd">
<!-- it-genn.ru -->
<svg xmlns="http://www.w3.org/2000/svg" xml:space="preserve" width="60px" height="60px" version="1.1" style="shape-rendering:geometricPrecision; text-rendering:geometricPrecision; image-rendering:optimizeQuality; fill-rule:evenodd; clip-rule:evenodd"
viewBox="0 0 20.225 20.225"
 xmlns:xlink="http://www.w3.org/1999/xlink"
 xmlns:xodm="https://it-genn.ru">
 <defs>
  <style type="text/css">
   <![CDATA[
    .fil0 {fill:none}
    .fil1 {fill:black;fill-rule:nonzero}
   ]]>
  </style>
 </defs>
 <g id="miniApp1">
  <metadata id="it-genn-Layer"/>
  <g id="miniApp2">
   <rect class="fil0" width="20.225" height="20.225"/>
   <path class="fil1" d="M11.707 18.539c-4.783,0 -4.783,-0.227 -5.353,-0.683 -0.341,-0.228 -0.911,-0.342 -3.188,-0.456 -0.114,-0.114 -0.228,-0.114 -0.342,-0.227 0,-0.114 -1.139,-1.595 -1.139,-4.214 0,-2.505 0.798,-3.644 0.798,-3.644 0.114,-0.114 0.227,-0.228 0.455,-0.228 1.822,0 4.214,-2.277 5.922,-6.263 0.228,-0.683 0.341,-1.139 1.366,-1.139 0.57,0 1.253,0.456 1.594,1.025 0.684,1.025 0.342,3.53 0,4.783 1.139,0 3.075,0 3.986,0 1.367,0 2.164,0.797 2.278,1.936 0,0.342 -0.114,0.797 -0.228,1.025 0.342,0.341 0.683,0.797 0.683,1.252 0,0.798 -0.455,1.367 -0.683,1.595 0,0.227 0.114,0.569 0.114,0.797 0,0.911 -0.569,1.366 -1.025,1.708 0,0.228 0.114,0.57 0,0.911 -0.228,1.253 -2.164,1.822 -5.238,1.822l0 0 0 0zm-8.2 -2.277c1.936,0.227 2.847,0.341 3.417,0.797 0.455,0.342 0.341,0.456 4.783,0.456 1.366,0 3.985,-0.114 4.213,-1.025 0.114,-0.342 -0.342,-0.684 -0.342,-0.684 -0.114,-0.341 0,-0.569 0.342,-0.683 0,0 1.025,-0.456 1.025,-1.025 0,-0.342 -0.228,-0.569 -0.228,-0.569 -0.114,-0.228 -0.114,-0.57 0.114,-0.798 0,0 0.683,-0.341 0.683,-0.91 0,-0.456 -0.569,-0.798 -0.569,-0.798 -0.228,-0.114 -0.228,-0.228 -0.342,-0.341 0,-0.114 0,-0.342 0.114,-0.456 0,0 0.342,-0.456 0.228,-0.797 0,-0.911 -0.911,-0.911 -1.139,-0.911 -1.253,0 -4.669,0 -4.669,0 -0.228,0 -0.342,-0.114 -0.456,-0.228 -0.113,-0.114 -0.113,-0.342 -0.113,-0.456 0.569,-1.48 0.91,-3.871 0.341,-4.668 -0.114,-0.228 -0.114,-0.456 -0.683,-0.456 0,0 -0.228,0.114 -0.456,0.569 -1.708,4.214 -4.327,6.605 -6.491,6.833 -0.227,0.456 -0.569,1.253 -0.569,2.847 0,1.708 0.569,2.961 0.797,3.302l0 0 0 0.001z"/>
  </g>
 </g>
</svg>
