<?xml version="1.0" encoding="UTF-8"?>
<!DOCTYPE svg PUBLIC "-//W3C//DTD SVG 1.1//EN" "http://www.w3.org/Graphics/SVG/1.1/DTD/svg11.dtd">
<!-- it-genn.ru -->
<svg xmlns="http://www.w3.org/2000/svg" xml:space="preserve" width="60px" height="60px" version="1.1" style="shape-rendering:geometricPrecision; text-rendering:geometricPrecision; image-rendering:optimizeQuality; fill-rule:evenodd; clip-rule:evenodd"
viewBox="0 0 10.651 10.651"
 xmlns:xlink="http://www.w3.org/1999/xlink"
 xmlns:xodm="https://it-genn.ru">
 <defs>
  <style type="text/css">
   <![CDATA[
    .fil0 {fill:none}
    .fil1 {fill:white}
   ]]>
  </style>
 </defs>
 <g id="miniApp1">
  <metadata id="it-genn-Layer"/>
  <g id="miniApp2">
   <rect class="fil0" width="10.651" height="10.651"/>
   <path class="fil1" d="M2.913 2.246l4.844 0c0.362,0 0.768,-0.011 1.125,0.042 0.312,0.046 0.595,0.154 0.775,0.426 0.179,0.273 0.167,0.576 0.086,0.88 -0.092,0.349 -0.262,0.718 -0.404,1.051l-0.194 0.453c-0.133,0.31 -0.267,0.677 -0.561,0.871 -0.293,0.193 -0.683,0.172 -1.021,0.172l-4.428 0c0.025,0.041 0.056,0.08 0.091,0.115 0.163,0.164 0.399,0.216 0.621,0.246 0.457,0.061 0.979,0.046 1.442,0.046l3.623 0c0.199,0 0.362,0.163 0.362,0.362 0,0.2 -0.163,0.363 -0.362,0.363l-3.623 0c-0.499,0 -1.045,0.013 -1.539,-0.053 -0.392,-0.053 -0.751,-0.166 -1.036,-0.451 -0.21,-0.21 -0.326,-0.459 -0.394,-0.731 -0.068,-0.066 -0.11,-0.158 -0.11,-0.26 0,-0.058 0.014,-0.114 0.039,-0.163 -0.051,-0.462 -0.039,-0.962 -0.039,-1.422l0 -1.185c0,-0.082 0.004,-0.219 0.001,-0.367 -0.001,-0.011 -0.001,-0.021 -0.001,-0.033 0,-0.005 0,-0.011 0,-0.016 -0.006,-0.22 -0.029,-0.452 -0.103,-0.554 -0.129,-0.18 -0.687,-0.337 -0.888,-0.404l-0.12 -0.04c-0.189,-0.063 -0.292,-0.269 -0.229,-0.459 0.063,-0.189 0.269,-0.292 0.458,-0.229l0.12 0.04c0.425,0.142 0.973,0.288 1.247,0.668 0.13,0.18 0.19,0.401 0.218,0.632zm0.021 0.725c0,0.012 0,0.025 0,0.037l0 1.185c0,0.391 -0.01,0.823 0.023,1.223l4.606 0c0.118,0 0.522,0.014 0.623,-0.052 0.1,-0.067 0.246,-0.444 0.293,-0.552l0.194 -0.453c0.127,-0.295 0.288,-0.64 0.37,-0.95 0.02,-0.075 0.057,-0.223 0.009,-0.296 -0.048,-0.073 -0.199,-0.097 -0.276,-0.108 -0.317,-0.047 -0.697,-0.034 -1.019,-0.034l-4.823 0zm0.77 4.709c0.575,0 1.042,0.467 1.042,1.042 0,0.575 -0.467,1.041 -1.042,1.041 -0.575,0 -1.041,-0.466 -1.041,-1.041 0,-0.575 0.466,-1.042 1.041,-1.042zm4.076 0c0.575,0 1.041,0.467 1.041,1.042 0,0.575 -0.466,1.041 -1.041,1.041 -0.575,0 -1.042,-0.466 -1.042,-1.041 0,-0.575 0.467,-1.042 1.042,-1.042zm0 0.725c-0.175,0 -0.317,0.142 -0.317,0.317 0,0.175 0.142,0.317 0.317,0.317 0.175,0 0.317,-0.142 0.317,-0.317 0,-0.175 -0.142,-0.317 -0.317,-0.317zm-4.076 0c-0.175,0 -0.317,0.142 -0.317,0.317 0,0.175 0.142,0.317 0.317,0.317 0.175,0 0.317,-0.142 0.317,-0.317 0,-0.175 -0.142,-0.317 -0.317,-0.317z"/>
  </g>
 </g>
</svg>
